<?xml version="1.0" encoding="UTF-8" standalone="no"?>
<!-- Created with Inkscape (http://www.inkscape.org/) -->

<svg
   width="128.36632mm"
   height="128.36186mm"
   viewBox="0 0 128.36632 128.36186"
   version="1.1"
   id="svg5"
   sodipodi:docname="wifi mouse.svg"
   inkscape:version="1.1.1 (3bf5ae0d25, 2021-09-20)"
   inkscape:export-filename="C:\Users\Shadownrun\Documents\javascript\win-control\plugins\mouse\wifi mouse.png"
   inkscape:export-xdpi="50.655033"
   inkscape:export-ydpi="50.655033"
   xmlns:inkscape="http://www.inkscape.org/namespaces/inkscape"
   xmlns:sodipodi="http://sodipodi.sourceforge.net/DTD/sodipodi-0.dtd"
   xmlns="http://www.w3.org/2000/svg"
   xmlns:svg="http://www.w3.org/2000/svg">
  <sodipodi:namedview
     id="namedview7"
     pagecolor="#ffffff"
     bordercolor="#999999"
     borderopacity="1"
     inkscape:pageshadow="0"
     inkscape:pageopacity="0"
     inkscape:pagecheckerboard="false"
     inkscape:document-units="mm"
     showgrid="false"
     inkscape:snap-smooth-nodes="true"
     inkscape:zoom="0.72070005"
     inkscape:cx="292.07713"
     inkscape:cy="365.61674"
     inkscape:window-width="1920"
     inkscape:window-height="1017"
     inkscape:window-x="-8"
     inkscape:window-y="-8"
     inkscape:window-maximized="1"
     inkscape:current-layer="layer1"
     fit-margin-top="0"
     fit-margin-left="0"
     fit-margin-right="0"
     fit-margin-bottom="0" />
  <defs
     id="defs2" />
  <g
     inkscape:label="Camada 1"
     inkscape:groupmode="layer"
     id="layer1"
     transform="translate(-39.406171,-89.945414)">
    <path
       id="rect31"
       style="fill:#ffffff;fill-opacity:1;fill-rule:evenodd;stroke:#000000;stroke-width:1;stroke-miterlimit:4;stroke-dasharray:none;stroke-opacity:1"
       d="m 108.30807,135.27145 c -9.369548,-9.36954 -24.460886,-9.36416 -33.837475,0.0124 L 46.858938,162.8955 c -10.800088,10.80009 -8.799688,30.18931 4.485009,43.474 13.284691,13.2847 32.673912,15.2851 43.474,4.48501 L 122.4296,183.24289 c 9.37659,-9.37659 9.38197,-24.46793 0.0124,-33.83747 l -0.51925,-0.51925 c -0.96022,-0.96023 -3.68785,-2.33312 -7.22574,-5.86973 -3.5367,-3.53781 -4.90611,-6.26212 -5.86973,-7.22574 z"
       sodipodi:nodetypes="ssssssscccs" />
    <path
       id="path7139"
       style="fill:#ffffff;fill-opacity:1;stroke:#000000;stroke-width:1;stroke-miterlimit:4;stroke-dasharray:none;stroke-opacity:1"
       d="m 154.67529,103.04395 a 43.015021,43.015021 0 0 0 -35.2158,-12.329598 l 1e-5,9.156383 a 33.950047,33.950047 0 0 1 28.80581,9.583195 33.950047,33.950047 0 0 1 9.59925,28.80579 h 9.13885 a 43.015021,43.015021 0 0 0 -12.32812,-35.21577 z m -12.74671,12.74558 a 24.989253,24.989253 0 0 0 -22.46964,-6.85066 v 9.63434 a 15.649836,15.649836 0 0 1 15.86563,3.82032 15.649836,15.649836 0 0 1 3.82765,15.86563 h 9.62775 a 24.989253,24.989253 0 0 0 -6.85139,-22.46963 z m -14.2787,21.06152 a 4.7959175,4.7959175 0 0 1 -6.78245,0 4.7959175,4.7959175 0 0 1 0,-6.78246 4.7959175,4.7959175 0 0 1 6.78245,0 4.7959175,4.7959175 0 0 1 0,6.78246 z"
       inkscape:transform-center-x="-19.361406"
       inkscape:transform-center-y="-19.361602" />
    <path
       id="rect18197"
       style="fill:none;stroke:#000000;stroke-width:0.5"
       d="m 105.16646,151.97367 0.6631,0.6631 c 0.74821,0.74821 0.74821,1.9529 0,2.70112 l -6.313447,6.31344 c -0.748211,0.74821 -1.952909,0.74821 -2.701113,1e-5 l -0.663104,-0.66311 c -0.74821,-0.74821 -0.74821,-1.9529 0,-2.70112 l 6.313444,-6.31344 c 0.74821,-0.74821 1.95291,-0.74821 2.70112,0 z m -15.773175,16.43627 7.019555,-7.01955 M 62.011815,148.01647 a 33.922517,4.2868598 45 0 1 0.176266,-0.37501 33.922517,4.2868598 45 0 1 27.018111,20.95558 33.922517,4.2868598 45 0 1 20.955578,27.01811 v 0 a 33.922517,4.2868598 45 0 1 -0.37502,0.17626" />
  </g>
</svg>
